<?xml version="1.0" encoding="UTF-8"?>
<svg id="Layer_1" data-name="Layer 1" xmlns="http://www.w3.org/2000/svg" viewBox="0 0 232.93 57.44">
  <g>
    <path d="M63.21,42.93V13.26c0-1.82-.67-2.11-4.03-2.3v-.34h22.46l1.49,7.68h-.34c-2.06-5.57-3.55-6.91-8.78-6.91h-7.97v16.08h6.82c4.27,0,5.14-1.2,5.86-5.62h.34v12.19h-.34c-.72-4.66-1.58-5.81-5.86-5.81h-6.82v14.69c0,1.82.67,2.11,5.18,2.3v.34h-12.05v-.34c3.36-.19,4.03-.48,4.03-2.3Z"/>
    <path d="M86.73,43.08V15.9c0-4.08-.38-4.75-3.07-4.99v-.29c2.11-.19,4.13-.96,5.71-2.02h.24c-.29,1.92-.29,3.46-.29,7.3v27.17c0,1.82.67,1.97,3.46,2.16v.34h-9.5v-.34c2.78-.19,3.46-.34,3.46-2.16Z"/>
    <path d="M93.92,34.34c0-7.39,5.09-12.29,11.57-12.29,6.14,0,11.18,4.71,11.18,11.71,0,7.39-5.04,12.29-11.57,12.29-6.14,0-11.19-4.7-11.19-11.71ZM105.73,45.33c4.61,0,8.21-3.89,8.21-10.46,0-6.91-3.84-12.1-9.07-12.1-4.61,0-8.16,3.89-8.16,10.46,0,6.91,3.79,12.1,9.02,12.1Z"/>
    <path d="M121.33,21.62c0-7.73,4.22-12.91,10.08-12.91,4.37,0,7.44,2.5,7.44,6.1,0,6.38-6.91,7.3-6.91,11.95,0,2.93,2.26,4.27,4.9,5.66,2.59,1.39,5.47,2.98,5.47,6.91s-3.12,6.72-7.49,6.72c-3.94,0-6.72-1.82-6.72-3.26,0-.62.48-1.15,1.1-1.15.67,0,.96.48,1.39,1.2.86,1.39,1.78,2.54,4.37,2.54,3.26,0,5.57-2.02,5.57-4.7,0-2.88-2.4-4.32-4.85-5.71-2.78-1.49-5.42-3.17-5.42-6.72,0-5.42,6.58-7.1,6.58-12.62,0-3.5-2.74-5.95-6-5.95-4.56,0-6.96,3.02-6.96,9.89v26.02h-5.81v-.34c2.59-.19,3.26-.34,3.26-2.16v-21.46Z"/>
    <path d="M145.57,34.48c0-7.58,5.14-12.24,11.47-12.24,2.35,0,4.51.58,6.43,1.78v-8.11c0-4.08-.38-4.75-2.88-4.99v-.29c1.92-.19,3.89-.96,5.47-2.02h.24c-.29,1.92-.29,3.46-.29,7.3v25.39c0,2.69.48,3.12,3.07,3.12v.29c-2.11.14-4.08.67-5.71,1.34h-.19l.38-3.74c-2.02,1.87-4.8,3.55-8.02,3.55-5.47,0-9.98-4.37-9.98-11.38ZM157.05,44.28c1.97,0,4.18-.77,6.43-2.54v-13.25c0-2.98-2.69-5.52-6.72-5.52-4.56,0-8.45,3.6-8.45,10.37s3.26,10.95,8.74,10.95Z"/>
    <path d="M170.25,34.34c0-7.39,5.09-12.29,11.57-12.29,6.14,0,11.19,4.71,11.19,11.71,0,7.39-5.04,12.29-11.57,12.29-6.14,0-11.18-4.7-11.18-11.71ZM182.05,45.33c4.61,0,8.21-3.89,8.21-10.46,0-6.91-3.84-12.1-9.07-12.1-4.61,0-8.16,3.89-8.16,10.46,0,6.91,3.79,12.1,9.03,12.1Z"/>
    <path d="M197.6,43.08v-15.31c0-2.88-.86-3.5-2.93-3.74v-.29c1.92-.19,4.03-.91,5.52-1.68h.24l-.38,5.52c.67-1.06,1.44-2.02,2.35-2.93,1.58-1.63,3.26-2.59,4.99-2.59,1.1,0,1.73.62,1.73,1.54s-.72,1.58-1.63,1.58c-1.1,0-1.68-.77-2.64-.77-1.54,0-3.22,1.63-4.7,3.98v14.69c0,1.82.67,1.97,4.22,2.16v.34h-10.08v-.34c2.64-.19,3.31-.34,3.31-2.16Z"/>
    <path d="M213.73,43.08v-19.06h-2.88v-.43l2.88-1.06v-.91c0-7.58,4.32-12.91,9.7-12.91,2.3,0,3.94.96,3.94,2.26,0,.77-.58,1.34-1.39,1.34-.67,0-1.06-.43-1.54-.91-.77-.77-1.54-1.39-2.88-1.39-3.03,0-5.28,2.64-5.28,9.79v2.74h6.19l-.29,1.49h-5.9v19.06c0,1.82.72,1.97,4.22,2.16v.34h-10.03v-.34c2.59-.19,3.26-.34,3.26-2.16Z"/>
  </g>
  <g>
    <path d="M32.01,33.12c-5.56.14-7.88-7.28-4.48-11.2,2.29-2.89,7.11-2.87,9.32.09,3.28,4.01.65,11.31-4.84,11.11h0ZM32.01,32.32c6.52.07,6.75-10.71.19-10.6-6.5-.24-6.79,10.54-.19,10.6h0Z"/>
    <path d="M32.01,32.52c5.36-.17,11.1-5.07,9.43-10.75-1.99-4.95-7.04-6.96-11.87-5.72-7.64,1.95-9.87,12.62-5.15,18.44,3.66,4.68,11.27,4.82,15.43.65,0,0,.29.27.29.27-4.04,5.05-12.71,5.17-16.93.12-5.94-6.58-3.15-19.21,5.86-21.38,5.68-1.55,12.45,1.41,13.96,7.65,1.37,6.28-5.11,11.55-11.01,11.11,0,0,0-.4,0-.4h0Z"/>
    <path d="M28.97,15.03c3.14-3.98,9.2-5.08,13.72-2.75,7.21,3.62,8.32,14.19,3.36,20.13-5.08,6.27-15.95,5.12-18.99-2.51,0,0,.36-.18.36-.18,3.38,6.25,12.85,7.06,17.15,1.47,4.07-5.13,3.3-14.09-2.66-17.47-3.82-2.18-9.24-1.74-12.64,1.58l-.29-.27h0Z"/>
    <path d="M23.99,35.49c-9.11-1.63-11.35-14.27-5.6-20.63,3.34-3.92,9.69-4.95,13.95-2.2,0,0-.18.36-.18.36-2.96-1.1-6.22-.88-8.89.39-5.54,2.62-7.33,9.87-5.35,15.35,1.03,2.8,3.25,5.16,6.19,6.35l-.11.38h0Z"/>
    <path d="M43.38,33.78c1.16,11.24-12.43,17.56-20.01,9.01-2.13-2.47-2.96-6-2.55-8.92,0,0,.42-.02.4,0,.26,2.92,1.4,5.82,3.37,7.81,3.92,4.13,11.03,4,14.91-.1,1.97-2.02,3.08-4.84,3.47-7.81h.4Z"/>
    <path d="M48.2,20.69c9.77,6.61,4.08,24.42-8.32,21.89,0,0,.04-.4.04-.4,10.83-.2,14.83-13.76,8.04-21.19,0,0,.25-.31.25-.31h0Z"/>
    <path d="M16.35,20.92c-7.02,7.38-3.45,21.29,7.72,21.23,0,0,.04.4.04.4-9.14,2.1-15.3-7.39-12.66-15.64.75-2.58,2.38-4.96,4.64-6.31l.25.31h0Z"/>
  </g>
</svg>