<?xml version="1.0" encoding="UTF-8"?>
<svg id="Layer_1" data-name="Layer 1" xmlns="http://www.w3.org/2000/svg" viewBox="0 0 64.01 57.44">
  <path d="M32.01,33.12c-5.56.14-7.88-7.28-4.48-11.19,2.29-2.89,7.11-2.87,9.32.09,3.28,4.01.65,11.31-4.84,11.11h0ZM32.01,32.32c6.52.07,6.75-10.71.19-10.6-6.5-.24-6.79,10.54-.19,10.6h0Z"/>
  <path d="M32.01,32.52c5.36-.18,11.1-5.07,9.43-10.75-1.99-4.95-7.04-6.96-11.87-5.72-7.64,1.95-9.87,12.62-5.15,18.44,3.66,4.68,11.27,4.82,15.43.65,0,0,.29.27.29.27-4.04,5.05-12.71,5.17-16.93.12-5.94-6.58-3.15-19.21,5.86-21.38,5.68-1.55,12.45,1.41,13.96,7.65,1.37,6.28-5.11,11.55-11.01,11.11,0,0,0-.4,0-.4h0Z"/>
  <path d="M28.97,15.02c3.14-3.98,9.2-5.08,13.72-2.75,7.21,3.62,8.32,14.19,3.36,20.13-5.08,6.27-15.95,5.12-18.99-2.51,0,0,.36-.18.36-.18,3.38,6.25,12.85,7.06,17.15,1.47,4.07-5.13,3.3-14.09-2.66-17.47-3.82-2.18-9.24-1.74-12.64,1.58l-.29-.27h0Z"/>
  <path d="M23.99,35.48c-9.11-1.63-11.35-14.27-5.6-20.63,3.34-3.92,9.69-4.95,13.95-2.2,0,0-.18.36-.18.36-2.96-1.1-6.22-.88-8.89.39-5.54,2.62-7.33,9.87-5.35,15.35,1.03,2.8,3.25,5.16,6.19,6.35l-.11.38h0Z"/>
  <path d="M43.38,33.77c1.16,11.24-12.43,17.56-20.01,9.01-2.13-2.47-2.96-6-2.55-8.92,0,0,.42-.02.4,0,.26,2.92,1.4,5.82,3.37,7.81,3.92,4.13,11.03,4,14.91-.1,1.97-2.02,3.08-4.84,3.47-7.81,0,0,.4,0,.4,0h0Z"/>
  <path d="M48.2,20.68c9.77,6.61,4.08,24.42-8.33,21.89,0,0,.04-.4.04-.4,10.83-.2,14.83-13.76,8.04-21.19,0,0,.25-.31.25-.31h0Z"/>
  <path d="M16.35,20.92c-7.02,7.38-3.46,21.29,7.72,21.23,0,0,.04.4.04.4-9.14,2.1-15.3-7.39-12.66-15.64.75-2.58,2.38-4.96,4.64-6.31l.25.31h0Z"/>
</svg>